<?xml version="1.0" encoding="utf-8"?>
<!-- Generator: Adobe Illustrator 24.1.2, SVG Export Plug-In . SVG Version: 6.00 Build 0)  -->
<svg version="1.1" xmlns="http://www.w3.org/2000/svg" xmlns:xlink="http://www.w3.org/1999/xlink" x="0px" y="0px"
	 viewBox="0 0 517.2 284.7" style="enable-background:new 0 0 517.2 284.7;" xml:space="preserve">
<style type="text/css">
	.st0{fill-rule:evenodd;clip-rule:evenodd;fill:#FFFFFF;}
	.st1{fill-rule:evenodd;clip-rule:evenodd;fill:#009C55;}
	.st2{fill-rule:evenodd;clip-rule:evenodd;fill:#939598;}
	.st3{fill-rule:evenodd;clip-rule:evenodd;fill:#282781;}
</style>
<g id="cdr_x5F_layer1">
</g>
<g id="cdr_x5F_layer2">
	<g>
		<ellipse class="st0" cx="260.3" cy="140.6" rx="137" ry="138.4"/>
		<path class="st1" d="M295,265.7c-8.6,0-8.4-4.4-11.7-7.7c-3.3-3.3-5.7,0-5.7,0H273l-5.1-9.4c2-11.7-28-13.7-28-13.7l-4.6-5.1
			l-6.3-0.9c-6,0-8.3,3.7-8.3,3.7l-4.6-4.9l-0.3-2.9v-3.4h-1.4l-1.1-2l-1.1-2l-0.3-2.6l-0.3-2.3l-0.3-2.9c0-4.6-4-5.4-4-5.4h-3.7
			L202,202c0,0,1.4-2.9,1.4-6c0-3.1-2.6-4.6-2.6-4.6h-2.6l-2.9-2.6l-0.9-3.1l5.7-7.4l2.6-2.3l3.1-5.7l1.7-4.3l4-1.7l1.7-3.1l0.3-6
			l2-4.6l3.4-3.4l3.7-1.4v-2.6l2.3-3.4l0.6-2.9h2l1.7-7.4l3.7-6.9h4l3.1,3.1l2,1.4l3.4,2.6l3.7,2l2.5,2.8l1.7,2.9l2.7,1l2.3,2.1
			l0.6,2.3h2.9h2.3c0,0,2.3,1.5,5.5,2.9c3.2,1.3,4-0.6,4-0.6s1.9-4,4.2-4c2.3,0,4.2-1.9,4.2-1.9v-2.7v-3.2l1.3-5.1
			c0,0-5.7-2.1-6.9-4.8c-1.1-2.7-7.7-11.5-2.7-16.6c5-5,0.8-13.7-1.7-13.7c-2.5,0-1.5-2.3-1.5-5.1c0-2.9-6.1,2.9-6.1,2.9
			s3.2,1.5,0.2,8.6c-3,7-15.2-0.4-10.7-3.2c4.6-2.9-0.3-9.2-2.1-11c-1.8-1.8,0.6-2.1,0.6-4.8c0-2.7-4.2-2.1-5.9-2.1
			c-1.7,0-3.4-3-0.4-3c3,0,1.1-2.7,1.1-2.7c0,0-2.1,0-2.1-1.3c0-1.3-0.4-3.8,3.6-2.5c4,1.3,6.9-3.6,3.2-3.6c-3.6,0-4.8-4.2-4.8-7.2
			c0-3-5.1,0-6.5,0c-1.3,0,0.8-4.2-1.7-4.2c-2.5,0-3.2,2.1-3.2,2.1s0.6,6.3-3,6.3c-3.6,0-2.3-7.2-2.3-7.2c1,0,3.8-1.7,0.6-2.7
			c-3.2-1-1.7-5.5-1.7-5.5c0-6.5-6.1-4-6.1-4h-1.3l-0.2-1.5c-0.8-6.7-3.6-2.5-3.6-2.5c-1.5-1.5-6.9,0-6.9,0c-2.5,2.5-3.2,1-3.2,1
			c-5.5-2.3-5.9,4.8-5.9,4.8c-1.1,5.3-4.6-1-4.6-1c0-1.7-1.7-3-1.7-3c-3.4,0-1.7,5.7-1.7,5.7l7.4,8.6V58c1.5,0,6.9,2.3,6.9,4.8
			s2.1,7.2,2.1,7.2c-3,5.1-3.2,18.6-3.2,18.6c-2.5,2.5-1.7,6.9-1.7,6.9c-0.9,0.9-2.7,5.1-2.7,5.1l-3.6-2.9l-1.5,1l-2.5,6.1
			c-2.7,2.7-12,4.6-12,4.6c-6.7,4-8.6,8-8.6,8c-2.1,5.7-0.2,13.5-0.2,13.5l-0.2,3.2l0.4,5.3l0.2,4l-1,5.1l1,3.6l-1.1,4.6l0.2,5.3
			l0.2,3.6l-1.5,3l-0.2,4.9v3.2l1.7,2.5l-0.2,3.4l3.4,1.9l3.2,4c4.8,4.8,6.3,7.8,6.3,7.8c2.9,0,5.7,3.8,5.7,3.8
			c1.9,5.9,7.9,7.7,7.9,7.7l2.6,2.6c1.7,1.3,2.7,4.2,2.7,4.2c0,10.3,6.1,8.6,6.1,8.6l2.3,2.3c-1.4,1.4,0,6.1,0,6.1l0,4.2
			c0,0-20.1-0.6-15.4,15.4c0,0,5.7,14.8,15.2,14.8c0,0,4.3,4.7,8.8,8.1c11.8,3.3,24.2,5,37,5c13.1,0,25.7-1.8,37.7-5.2
			C299.9,268.5,295,265.7,295,265.7z"/>
		<path class="st1" d="M259.9,2.5c-20.4,0-39.9,4.4-57.3,12.4c0.4,2.4,0.6,5.4-0.4,6.7l0.2,5.2c0,0,3.1-0.4,4.6,1.5
			c0,0,4.1,4.6,5.5,4.6c0,0,0.9-3.5,4.1-4.1c0,0,5.2,0.7,6.5-1.3c0,0,2.6-5.5,5.5-5.2c0,0-0.4-2.8,2-4.8c0,0,3.5-2.4,8.1-1.3
			c0,0,2.6,0,4.8-2.4c0,0,1.5-2.6,7.6-0.7c0,0,3.5,1.1,6.1-0.9c0,0,5.7-2.6,8.9,0.7c0,0,1.5,3.1,10.7,1.7c0,0,4.8,0.7,4.8,5.2
			c0,0,3.1,5,8.5,0.9c0,0,2.2,2.4,0.9,3.7c0,0-0.7,2.6,2,2.4c0,0,3.3,4.6,5.9,1.7c0,0-0.2-4.4,3.5-4.4c0,0,4.1,0.7,2,5.5
			c0,0,0.2,2.6,2.6,3.3c2.4,0.7,1.7,3.3,1.7,3.3c0,0,3.1-2.8,8.9-0.2c0,0,6.1,2,7.4,0.4c0,0,7.2,4.4,5.9,7.6c0,0,0.4,6.8-3.9,1.5
			c-4.4-5.2-6.5,0.2-6.5,3.3c0,0,1.3,2.8-3.5,1.5c0,0-3.7,0.9,1.1,6.8c0,0,0.9,5.7,4.4,7.4c0,0,1.7,7,5.2,7.4c0,0,5.2,2.8,5.5,5
			c0,0,1.5,3.3,3.7,2.2c0,0,1.7-1.5,1.7-3.9c0,0,3.7,1.1,5.5-0.4c0,0-2.2-3.9-4.6-5c0,0-1.7-4.6-4.8-5c0,0-4.8-2.2-5.2-7
			c0,0,1.5-4.8,7.4-0.7c0,0,5,4.1,7.4,3.3c0,0,1.3-2.4,0.2-5.5c0,0,3.1-5.2,6.8,0.2c0,0,2.8,3.6,0,6.4c0,0-1,2.2,1.7,2.2
			c2.7,0,1.3,5-1.1,5c-2.4,0,1.1,3.5,1.1,3.5c0,0,2.9,6.5-4.4,4.4l-1.5,1.5V83h2.8l1.6,1.6v4.7c0,0,9.6,6.3,6.8,12l-2,5
			c0,0,4.3,2,4.3,4.3c0,0-1.9,4.4-1.9,5.7v5.3c0,0,3,0,4.9-1.9c0,0,4.4-1.6,4.4,0.3c0,0-0.7,6.9-0.7,8.4c0,0,8.3-2.7,8.3-9.8
			c0,0-0.3-7,1.4-8.6c1.6-1.6,7.4-5.6,7.4-7.4c0-1.3,4.1-0.8,8.1-2.1C375,43.7,322.3,2.5,259.9,2.5z"/>
		<path class="st1" d="M202.4,88.2c0,0-1.6,1.3-1.6,3.5c0,0-2.6,1.6-0.2,3.3c0,0,3.1,2.1,2-1.2C202.7,93.8,203.2,88.9,202.4,88.2z"
			/>
		<path class="st1" d="M311,80.4c-1.2,0,1.8,8.3-2.4,5.5c-0.4-0.3-2.9-3.6-4.2-1.2l-0.4,2l-0.3,1.8l1.9,0.6l0.5-1.9l0.9,1l0.3,1.4
			l0.9,2.5c0,0,2.1,1.2,3.3,1.2c1.3,0,1.8-2.2,1.8-2.8c0-0.7,1.1-3.1,1.1-4.2C314.4,85,312.2,80.4,311,80.4z"/>
		<path class="st1" d="M298.1,87.6c-2.9-2.2,2.3-4.1,0.2-7.9c0,0-0.1-1.9,1.8-2.5c1.9-0.6-1.6-3.5-3.5-3.5c-2,0-1.3-2.5-1.3-2.5
			s-1-2.6-1.9-2.6c-0.9,0-2.1-1.2-2.1-2.3c0-1.1-0.7-2.3-2.1-2.3c-1.4,0-2.1-0.5-2.1-1.3c0-0.8-2.4,0.2-2.4,0.2s-3.2-0.8-3.2-1.9
			c0-1.1-2.4-0.2-2.4,1.4c0,0-2.9-1.4-2.9,3.6c0,0,0.2,2.5-0.6,3.2c-0.8,0.8-2.3,3.7-0.2,4.7c2.1,1,1.6,3.7,0.7,4.6
			c-0.9,0.9,1.2,1.5,1.2,1.5l0.2,3.2c0.4,0.4,7.5,3,4.6,6.9h-1.5c0,0,0.7,2.9,1.7,3.9c1,1,4.2,1.3,5.4,2.6c1.2,1.2,3.4,3.5,4.7,3.5
			c1.3,0,4,1.9,5.5,0.4c1.5-1.5,1.8-0.3,1.8-0.3s-0.5-7,0.7-7C301.6,93.5,301,89.7,298.1,87.6z"/>
		<path class="st2" d="M122.9,140.9c0-75.5,61.4-137,137-137c75.5,0,137,61.4,137,137c0,75.5-61.4,137-137,137
			C184.4,277.9,122.9,216.4,122.9,140.9z M120,140.9c0,77.1,62.8,139.9,139.9,139.9s139.9-62.8,139.9-139.9
			C399.8,63.8,337.1,1,259.9,1S120,63.8,120,140.9z"/>
		<path class="st0" d="M88.3,136.1c0.4-0.7,0.9-1.2,1.7-1.4c0.8-0.3,2.4-0.6,5.7-0.6h2.8l1.5-8.6H96H68.4l-1.5,8.6h3.9
			c3.9,0,5,0.5,5.1,0.5c0,0,0,0,0,0c0,0,0.1,0.3,0.1,0.7c0,0,0,0.1,0,0.1c0,0.4-0.1,1.7-0.8,5.2c0,0-4.7,22.2-7,32.8
			c-6.5-10.8-28.8-47.9-28.8-47.9h-24l-1.5,8.6h3.9c2.2,0,3.5,0.3,4.2,0.6c0.9,0.4,1.7,0.9,2.3,1.5c0.6,0.6,1.3,1.6,2.1,2.7
			c-0.6,2.6-10.1,48.2-10.1,48.2c-0.7,3.4-1.4,5-1.8,5.8c-0.4,0.7-0.9,1.1-1.6,1.4c-0.8,0.3-2.4,0.6-5.6,0.6H4.9l-1.9,8.6h31.9
			l1.5-8.6h-3.9c-3.9,0-5.1-0.5-5.3-0.6c0,0-0.1-0.2-0.1-0.6c0,0,0,0,0,0c0-0.4,0.1-1.7,0.8-5.2c0,0,5.2-24.8,7.5-35.7
			c6.7,11,31.6,51.9,31.6,51.9h6.4l13.3-62.8C87.2,138.6,87.9,136.9,88.3,136.1z"/>
		<path class="st3" d="M96,126c0,0,2.5,0,3.4,0c-0.2,0.9-1.2,6.9-1.3,7.6c-0.6,0-2.4,0-2.4,0c-3.3,0-5,0.4-5.9,0.6
			c-0.9,0.3-1.5,0.8-1.9,1.6v0c-0.4,0.8-1.1,2.5-1.9,5.9c0,0-13,61.7-13.2,62.4c-0.7,0-5.3,0-5.7,0c-0.3-0.5-31.4-51.6-31.4-51.6
			c-0.1-0.2-0.3-0.3-0.5-0.2c-0.2,0-0.4,0.2-0.4,0.4l-7.5,35.7c-0.8,3.5-0.9,4.8-0.9,5.3c0,0.5,0.1,0.9,0.3,1c0,0,0.1,0.1,0.1,0.1
			c0.3,0.1,1.6,0.6,5.5,0.6c0,0,2.5,0,3.4,0c-0.2,0.9-1.2,6.9-1.3,7.6c-0.8,0-29.7,0-30.9,0c0.2-1,1.6-7,1.7-7.6c0.6,0,2.3,0,2.3,0
			c3.3,0,5-0.3,5.8-0.6c0.8-0.3,1.4-0.8,1.9-1.6c0.4-0.8,1.1-2.5,1.9-5.9c0,0,10.1-48.2,10.1-48.2c0,0,0-0.1,0-0.1
			c0-0.1,0-0.2-0.1-0.3c-0.9-1.3-1.6-2.2-2.2-2.8c-0.7-0.7-1.5-1.2-2.5-1.6c-0.7-0.3-2.1-0.6-4.4-0.6c0,0-2.5,0-3.4,0
			c0.2-0.9,1.2-6.9,1.3-7.6c0.8,0,22.8,0,23.3,0c0.3,0.5,28.7,47.6,28.7,47.6c0.1,0.2,0.3,0.3,0.5,0.2c0.2,0,0.4-0.2,0.4-0.4l7-32.8
			c0.7-3.4,0.8-4.8,0.8-5.3c0,0,0-0.1,0-0.1l-0.1-0.7c0-0.2-0.1-0.4-0.3-0.4c-0.2-0.1-1.4-0.6-5.3-0.6c0,0-2.5,0-3.4,0
			c0.2-0.9,1.2-6.9,1.3-7.6C69.6,126,96,126,96,126z M96,125H68.4c-0.2,0-0.4,0.2-0.5,0.4l-1.5,8.6c0,0.1,0,0.3,0.1,0.4
			c0.1,0.1,0.2,0.2,0.4,0.2h3.9c2.9,0,4.2,0.3,4.7,0.4c0,0.2,0,0.3,0,0.3c0,0,0,0,0,0c0,0.5-0.1,1.7-0.7,5.2c0,0-5.5,25.7-6.7,31.5
			c-1.2-2-28.2-46.8-28.2-46.8c-0.1-0.1-0.2-0.2-0.4-0.2h-24c-0.2,0-0.4,0.2-0.5,0.4l-1.5,8.6c0,0.1,0,0.3,0.1,0.4
			c0.1,0.1,0.2,0.2,0.4,0.2h3.9c2.2,0,3.4,0.3,4,0.5c0.9,0.3,1.6,0.8,2.2,1.4c0.5,0.5,1.1,1.3,2,2.5c-0.1,0.4-10,48-10,48
			c-0.7,3.4-1.4,4.9-1.8,5.7c-0.3,0.6-0.7,0.9-1.4,1.2c-0.7,0.3-2.3,0.6-5.5,0.6H4.9c-0.2,0-0.4,0.2-0.5,0.4l-1.9,8.6
			c0,0,0,0.1,0,0.1c0,0.1,0,0.2,0.1,0.3c0.1,0.1,0.2,0.2,0.4,0.2h31.9c0.2,0,0.4-0.2,0.5-0.4l1.5-8.6c0-0.1,0-0.3-0.1-0.4
			c-0.1-0.1-0.2-0.2-0.4-0.2h-3.9c-3.1,0-4.4-0.3-4.9-0.5c0-0.1,0-0.3,0-0.3c0-0.3,0.1-1.6,0.8-5.1c0,0,5.9-28.4,7.2-34.5
			c1.2,2,30.9,50.8,30.9,50.8c0.1,0.1,0.2,0.2,0.4,0.2h6.4c0.2,0,0.4-0.2,0.5-0.4L87,142c0.7-3.3,1.4-4.9,1.8-5.6l0,0
			c0.3-0.6,0.7-1,1.4-1.2c0.8-0.3,2.3-0.6,5.5-0.6h2.8c0.2,0,0.4-0.2,0.5-0.4l1.5-8.6c0-0.1,0-0.3-0.1-0.4c-0.1-0.1-0.2-0.2-0.4-0.2
			H96z"/>
		<path class="st0" d="M218.2,165.1L218.2,165.1l-2.7,13.3l-2.5,10.7c-0.5,2.5-1,3.7-1.2,4.3c-0.2,0.5-0.6,0.8-1,1.1
			c-0.2,0.1-1.1,0.5-3.2,0.5c-1.8,0-2.6-0.2-2.8-0.3c0-0.1,0-0.1,0-0.2c0,0,0,0,0,0c0-0.5,0.1-1.7,0.7-4.2l6.8-32.5l1.1,5.2l3.5-1.2
			c0.8-0.3,1.4-0.4,1.8-0.5c0,0.1,0,0.1,0,0.2c0,0.1,0,0.2,0,0.3C218.7,162.5,218.6,163.7,218.2,165.1z M176.8,165.6L176.8,165.6
			c0,0.1,0,0.1,0,0.2c-2.5,0.9-8.7,3-8.7,3c-2.5,0.9-5.4,2.1-8.7,3.8c-3.4,1.7-6.5,3.9-8.9,6.3c-2.5,2.5-4.2,5.3-5,8.4h-0.1l-1,1.7
			c-0.5,0.8-1.1,1.4-1.8,1.9c-0.7,0.5-1.4,0.7-2,0.7c-0.1,0-0.1,0-0.2,0c0-0.1,0-0.3-0.1-0.5c0-0.1,0-0.1,0-0.2
			c0-0.5,0.1-1.4,0.4-3.2c0,0,5.2-24.2,6.1-28.6c1.6,0,4.4,0,6.9,0c-0.4,0.9-0.8,1.9-1,2.9l-0.1,0.2l0,0l-0.2,2.4
			c0.2,4.1,2.8,6.6,6.9,6.6c2.3,0,4.4-0.8,6-2.5c1.4-1.4,2.3-3.2,2.8-5.2l0-0.1l0,0l0.3-1.9c0,0,0.1-0.5,0.1-0.5c0-0.1,0-0.1,0-0.1
			l0.1-0.4c0.1-0.6,0.4-1.4,1.7-2.2c1.2-0.7,2.4-1.1,3.6-1.1c3,0,3.6,1,3.6,3.1l0,0.1l0,0.1c0,0.2,0,0.4,0,0.6
			C177.5,161.8,177.3,163.3,176.8,165.6z M172.2,187.9c-5.1,3.4-7.6,4-8.7,4c-1,0-1.4-0.3-1.7-0.7l0,0c-0.6-0.7-0.8-1.4-0.9-2.4
			c0-0.6,0.1-1.1,0.2-1.6l0-0.1l0-0.1c0.3-1.4,0.9-2.6,2-3.7c1.2-1.3,2.8-2.5,4.7-3.5c2.1-1.1,4-2,5.6-2.7c0,0,0.5-0.2,1.1-0.4
			C173.6,181.5,172.5,186.4,172.2,187.9z M123.9,185.4l0.4-2.1c0,0,0.3-1.5,0.3-1.5c0,0.1,1.4-6.2,1.4-6.2c0,0,1.9-7.8,1.9-7.8
			l0-0.1c0.6-3.3,0.9-6.2,1-8.7c1,0,2,0,2.5,0c-1.3,6.2-6.1,28.4-6.1,28.4c-0.1,0.3-0.1,0.6-0.2,0.8c-0.8,0.6-1.4,1.2-2,1.6
			C123.2,188.9,123.5,187.5,123.9,185.4z M108.2,187.9c-5.1,3.4-7.6,4-8.7,4c-1,0-1.4-0.3-1.7-0.7l0,0c-0.6-0.7-0.8-1.4-0.9-2.4
			c0-0.6,0.1-1.1,0.2-1.6l0-0.1l0-0.1c0.3-1.4,0.9-2.6,2-3.7c1.2-1.3,2.8-2.5,4.7-3.5c2.1-1.1,4-2,5.6-2.7c0,0,0.5-0.2,1.1-0.4
			C109.5,181.5,108.5,186.4,108.2,187.9z M237.7,147.2h-4.1h-3l-17.5,6.5l6.7-31.7h-4.1h-3l-18.8,7.1l2,8.3l3.5-1.3
			c0.8-0.3,1.3-0.4,1.7-0.5c0,0,0,0,0,0.1l0,0.1l0,0.1c0,0.1,0,0.2,0,0.3c0,0.6-0.1,1.7-0.5,3.2l0,0.1l-3.3,15.2l-7,32.5l-0.6,0.6
			c-1,0.9-1.8,1.5-2.6,2.1c0.1-1,0.3-2.4,0.8-4.5l0.4-2.1c0,0,0.3-1.5,0.3-1.5c0,0.1,1.4-6.2,1.4-6.2c0,0,1.9-7.8,1.9-7.8l0-0.1
			c0.7-3.8,1.1-7.2,1-10l0-0.3l-0.1-0.3c-1-4.5-4.7-9.9-16.8-9.9c-2.1,0-4.4,0.3-6.7,0.8l0,0c-2.4,0.5-4.7,1.3-6.9,2.4
			c-1,0.5-2,1.1-2.9,1.7l0.7-3.4c0,0-7.9,0-11.3,0c0.9-4.5,3.3-15.8,3.3-15.8h-4.1h-3.5l-1,1.6c-2.5,4-5.1,7.5-7.9,10.4
			c-2.6,2.7-5.6,4.7-8.8,6l-1.4,0.5c-2.5-2.4-6.6-4.1-13.6-4.1c-2.1,0-4.4,0.3-6.7,0.8l0,0c-2.4,0.5-4.7,1.3-6.9,2.4
			c-2.3,1.1-4.4,2.7-6.1,4.6c-1.8,2-3,4.3-3.6,7l-0.1,0.2l0,0l-0.2,2.4c0.2,4.1,2.8,6.6,6.9,6.6c2.3,0,4.4-0.8,6-2.5
			c1.4-1.4,2.3-3.2,2.8-5.2l0-0.1l0,0l0.3-1.9c0,0,0.1-0.5,0.1-0.5c0-0.1,0-0.1,0-0.1l0.1-0.4c0.1-0.6,0.4-1.4,1.7-2.2
			c1.2-0.7,2.4-1.1,3.6-1.1c3,0,3.6,1,3.6,3.1l0,0.1l0,0.1c0,0.2,0,0.4,0,0.6c0,0.9-0.1,2.4-0.6,4.7l0,0.1c0,0,0,0.1,0,0.1
			c-2.5,0.9-8.7,3-8.7,3c-2.5,0.9-5.4,2.1-8.7,3.8c-3.4,1.7-6.5,3.9-8.9,6.3c-2.7,2.7-4.5,5.8-5.2,9.2l0,0.1l0,0.1
			c-0.2,1-0.3,2.1-0.3,3.3c0,0.4,0,0.8,0,1.1c0.1,3.3,1.2,6.2,3.4,8.5c2.2,2.3,5.2,3.4,8.9,3.4c3.3,0,6.4-0.8,9.1-2.3
			c1.3-0.7,2.8-1.6,4.6-2.8c1,3.2,3.5,5.1,7.2,5.1c3.4,0,7.2-1.8,11.5-5.3c1.6,3.3,4.8,5.1,9.3,5.1c2.3,0,4.7-0.6,7-1.8
			c1.8-0.9,3.4-2,4.8-3.4c0.4,0.7,0.9,1.3,1.5,1.9c2.2,2.3,5.2,3.4,8.9,3.4c3.3,0,6.4-0.8,9.1-2.3c1.3-0.7,2.8-1.6,4.6-2.8
			c1,3.2,3.5,5.1,7.2,5.1c1.5,0,3-0.3,4.6-1h19.8h7.7h22.6l1.5-8.6h-4c-2.1,0-2.7-0.3-2.8-0.4c0,0,0-0.1,0-0.2
			c0-0.3,0.1-1.2,0.8-4.4L237.7,147.2z"/>
		<path class="st3" d="M101.6,169c1.5-1.5,2.4-3.3,2.9-5.5l0-0.1l0.3-2l0.1-0.5l0.1-0.5c0.1-0.6,0.4-1.2,1.4-1.9
			c1.1-0.7,2.2-1,3.3-1c2.8,0,3.1,0.8,3.1,2.7l0,0.2c0,0,0,0.6,0,0.6c0,0.8-0.1,2.2-0.6,4.5c-0.5,0.2-8.4,2.9-8.4,2.9
			c-0.9,0.3-1.9,0.7-2.9,1.1C101.2,169.3,101.4,169.1,101.6,169z M215.6,122.5c0,0,2.6,0,3.5,0c-0.2,1.1-6.6,31.1-6.6,31.1
			c0,0,0,0.1,0,0.1c0,0.1,0.1,0.3,0.2,0.4c0.1,0.1,0.3,0.2,0.5,0.1c0,0,17.3-6.4,17.4-6.4c0.2,0,5.5,0,6.4,0c-0.2,1.2-9,42.2-9,42.2
			c-0.7,3.1-0.8,4.1-0.8,4.5c0,0.1,0,0.2,0,0.2c0,0.2,0.1,0.3,0.3,0.4c0.2,0.1,0.9,0.4,3,0.4c0,0,2.5,0,3.4,0
			c-0.2,0.9-1.2,6.9-1.3,7.6c-0.8,0-49.8,0-49.8,0c-0.1,0-0.1,0-0.2,0c-1.5,0.6-3,0.9-4.4,0.9c-3.4,0-5.9-1.7-6.8-4.7
			c0-0.1-0.2-0.3-0.3-0.3c-0.1-0.1-0.3,0-0.4,0l-4.6,2.8c-2.7,1.5-5.7,2.2-8.9,2.2c-3.6,0-6.5-1.1-8.6-3.3c-0.5-0.6-1-1.2-1.4-1.9
			c-0.1-0.1-0.2-0.2-0.4-0.2c-0.1,0-0.3,0-0.4,0.1c-1.4,1.3-3,2.5-4.7,3.3c-2.2,1.1-4.5,1.7-6.7,1.7c-4.2,0-7.3-1.7-8.8-4.8
			c-0.1-0.1-0.2-0.2-0.3-0.3c-0.1,0-0.3,0-0.4,0.1c-4.2,3.5-7.9,5.2-11.2,5.2c-3.4,0-5.9-1.7-6.8-4.7c0-0.1-0.2-0.3-0.3-0.3
			c-0.1-0.1-0.3,0-0.4,0l-4.6,2.8c-2.7,1.5-5.7,2.2-8.9,2.2c-3.6,0-6.5-1.1-8.6-3.3c-2.1-2.1-3.1-4.9-3.2-8.1c0,0,0-1.1,0-1.1
			c0-1.1,0.1-2.2,0.3-3.2l0-0.1c0.7-3.3,2.4-6.3,5.1-9c2.4-2.4,5.4-4.5,8.8-6.2c3.2-1.6,6.1-2.9,8.6-3.8l8.7-3
			c0.2-0.1,0.3-0.3,0.3-0.4l0-0.1c0.4-1.9,0.7-3.5,0.7-4.8l0-0.6l0-0.1c-0.1-2.3-0.8-3.6-4.1-3.6c-1.3,0-2.6,0.4-3.9,1.2
			c-1.4,0.9-1.7,1.8-1.9,2.5l-0.1,0.4c0,0-0.1,0.1-0.1,0.2l-0.3,2.4l0,0.1c-0.4,2-1.3,3.6-2.7,5c-1.5,1.5-3.4,2.3-5.6,2.3
			c-3.8,0-6.2-2.3-6.4-6.1l0.2-2.3l0-0.1c0.6-2.5,1.8-4.8,3.5-6.7c1.7-1.9,3.7-3.4,5.9-4.4c2.1-1,4.4-1.8,6.8-2.3
			c2.4-0.5,4.6-0.8,6.6-0.8c6,0,10.5,1.3,13.2,4c0.1,0.1,0.3,0.2,0.5,0.1l1.4-0.5c3.3-1.3,6.3-3.3,9-6.1c2.8-2.9,5.5-6.4,8-10.5
			c0,0,0.6-1,0.8-1.4c0.5,0,5.8,0,6.7,0c-0.2,1.1-3.2,15.2-3.2,15.2c0,0,0,0.1,0,0.1c0,0.1,0,0.2,0.1,0.3c0.1,0.1,0.2,0.2,0.4,0.2
			c0,0,9.6,0,10.7,0c-0.2,0.8-0.6,2.8-0.6,2.8c0,0,0,0.1,0,0.1c0,0.2,0.1,0.3,0.2,0.4c0.2,0.1,0.4,0.1,0.5,0
			c0.9-0.7,1.9-1.2,2.8-1.7c2.1-1,4.4-1.8,6.8-2.3c2.4-0.5,4.6-0.8,6.6-0.8c11.8,0,15.3,5.2,16.3,9.5l0.1,0.3l0,0.2
			c0.1,2.8-0.3,6.1-1,9.9c0,0.1-1.9,7.9-1.9,7.9c0,0-1.4,6.2-1.4,6.2c0,0-0.3,1.5-0.3,1.5l-0.4,2.1c-0.4,1.8-0.6,3.3-0.8,4.5
			c0,0.2,0.1,0.4,0.2,0.5c0.2,0.1,0.4,0.1,0.5,0l2.6-2.2l0.6-0.6c0.1-0.1,0.1-0.2,0.2-0.3l7-32.5l3.3-15.2l0-0.1
			c0.3-1.3,0.5-2.4,0.5-3.3l0-0.5c0-0.2-0.1-0.3-0.2-0.4c-0.1-0.1-0.3-0.2-0.4-0.1l-1.8,0.5c0,0-2.2,0.8-3,1.1
			c-0.2-0.9-1.6-6.7-1.8-7.4c0.8-0.3,18.1-6.8,18.3-6.9C212.9,122.5,215.6,122.5,215.6,122.5z M215.6,121.5h-3c-0.1,0-0.1,0-0.2,0
			l-18.8,7.1c-0.2,0.1-0.4,0.3-0.3,0.6l2,8.3c0,0.1,0.1,0.3,0.2,0.3c0.1,0.1,0.3,0.1,0.4,0l3.5-1.3c0,0,0.6-0.2,1.1-0.3
			c0,0.6-0.1,1.5-0.5,3l0,0.1l-3.3,15.2c0,0-6.9,32-7,32.3c-0.2,0.1-0.5,0.5-0.5,0.5s-0.8,0.7-1.6,1.3c0.1-0.9,0.3-2,0.6-3.2
			l0.4-2.1c0,0,0.3-1.5,0.3-1.5c0,0.2-0.1,0.3-0.3,0.3c0.3-0.3,0.5-1.5,1.6-6.5c0,0,1.9-7.8,1.9-7.8c0.8-4,1.1-7.3,1-10.2l0-0.3
			l-0.1-0.4c-1-4.7-4.8-10.3-17.2-10.3c-2.1,0-4.4,0.3-6.8,0.8c-2.4,0.5-4.8,1.3-7,2.4c-0.7,0.3-1.3,0.8-2,1.2
			c0.2-1,0.5-2.3,0.5-2.3c0,0,0-0.1,0-0.1c0-0.1,0-0.2-0.1-0.3c-0.1-0.1-0.2-0.2-0.4-0.2c0,0-9.6,0-10.7,0
			c0.2-1.1,3.2-15.2,3.2-15.2c0,0,0-0.1,0-0.1c0-0.1,0-0.2-0.1-0.3c-0.1-0.1-0.2-0.2-0.4-0.2h-7.6c-0.2,0-0.3,0.1-0.4,0.2l-1,1.6
			c-2.4,4-5.1,7.4-7.8,10.3c-2.6,2.7-5.5,4.6-8.6,5.9c0,0-0.8,0.3-1.2,0.4c-3-2.7-7.6-4.1-13.6-4.1c-2.1,0-4.4,0.3-6.8,0.8
			c-2.4,0.5-4.8,1.3-7,2.4c-2.4,1.2-4.5,2.7-6.2,4.7c-1.8,2.1-3.1,4.5-3.7,7.2l-0.1,0.2l-0.2,2.5c0.2,4.4,3,7.1,7.3,7.1
			c0.4,0,0.9-0.1,1.3-0.1c-0.5,0.2-0.9,0.4-1.4,0.6c-3.5,1.8-6.5,3.9-9.1,6.4c-2.8,2.7-4.6,5.9-5.3,9.4l0,0.2
			c-0.2,1.1-0.3,2.2-0.3,3.3l0,1.2c0.1,3.5,1.3,6.4,3.5,8.8c2.3,2.4,5.4,3.6,9.3,3.6l0,0c3.4,0,6.5-0.8,9.4-2.4c0,0,3-1.8,4.2-2.5
			c1.2,3.1,3.8,4.9,7.4,4.9c3.4,0,7.2-1.7,11.4-5.1c1.8,3.2,5,4.9,9.4,4.9c2.4,0,4.8-0.6,7.2-1.8c1.6-0.8,3.1-1.9,4.5-3.1
			c0.4,0.6,0.8,1.1,1.2,1.6c2.3,2.4,5.4,3.6,9.3,3.6l0,0c3.4,0,6.5-0.8,9.4-2.4c0,0,3-1.8,4.2-2.5c1.2,3.1,3.8,4.9,7.4,4.9
			c1.5,0,3-0.3,4.7-1c0.1,0,50.1,0,50.1,0c0.2,0,0.4-0.2,0.5-0.4l1.5-8.6c0,0,0-0.1,0-0.1c0-0.1,0-0.2-0.1-0.3
			c-0.1-0.1-0.2-0.2-0.4-0.2h-4c-1.3,0-2-0.1-2.3-0.2c0-0.3,0.2-1.4,0.8-4.1l9.1-42.8c0,0,0-0.1,0-0.1c0-0.1,0-0.2-0.1-0.3
			c-0.1-0.1-0.2-0.2-0.4-0.2h-7.1c-0.1,0-0.1,0-0.2,0c0,0-15.2,5.6-16.7,6.2c0.3-1.6,6.5-30.9,6.5-30.9c0,0,0-0.1,0-0.1
			c0-0.1,0-0.2-0.1-0.3c-0.1-0.1-0.2-0.2-0.4-0.2H215.6z"/>
		<path class="st3" d="M97.6,187.1c0.3-1.3,0.9-2.5,1.8-3.5c1.2-1.2,2.7-2.4,4.6-3.4c2.1-1.1,3.9-2,5.6-2.6c0,0,0.1,0,0.3-0.1
			c-0.3,1.5-2.1,10-2.1,10.2c-5.1,3.4-7.5,3.8-8.3,3.8c-0.8,0-1.1-0.3-1.3-0.5c-0.5-0.6-0.7-1.3-0.8-2.1c0,0,0.2-1.4,0.2-1.4
			C97.6,187.3,97.6,187.2,97.6,187.1L97.6,187.1z M110.4,176.2l-1.1,0.4c-1.7,0.6-3.6,1.5-5.7,2.7c-1.9,1.1-3.6,2.3-4.8,3.6
			c-1.1,1.2-1.8,2.5-2.1,4l0,0.2c0,0-0.2,1.7-0.2,1.7c0.1,1.1,0.4,2,1,2.7c0.4,0.4,0.9,0.9,2.1,0.9c1.1,0,3.7-0.5,9-4.1
			c0.1-0.1,0.2-0.2,0.2-0.3l2.3-11.2c0-0.2,0-0.4-0.2-0.5C110.7,176.1,110.5,176.1,110.4,176.2z"/>
		<path class="st3" d="M130.8,159.5c-0.2,1.1-6.1,28.5-6.1,28.5c-0.1,0.1-0.4,0.4-0.9,0.7c0.1-0.9,0.3-2,0.6-3.2
			c0,0,0.4-2.1,0.4-2.1c0,0,0.3-1.5,0.3-1.5c0,0.2-0.1,0.3-0.3,0.3c0.3-0.3,0.5-1.5,1.6-6.5c0,0,1.9-7.8,1.9-7.8
			c0.6-3.1,0.9-5.9,1-8.4C129.8,159.5,130.2,159.5,130.8,159.5z M128.9,158.5c-0.3,0-0.5,0.2-0.5,0.5c0,2.6-0.4,5.5-1,8.7
			c0,0.1-1.9,7.9-1.9,7.9c0,0-1.4,6.2-1.4,6.2c0,0-0.3,1.5-0.3,1.5l-0.4,2.1c0,0,0,0,0,0c-0.4,1.8-0.6,3.3-0.8,4.5
			c0,0.2,0.1,0.4,0.2,0.5c0.2,0.1,0.4,0.1,0.5,0l2-1.7c0.1-0.1,0.1-0.2,0.2-0.3l0-0.2l6.2-29c0-0.1,0-0.3-0.1-0.4
			c-0.1-0.1-0.2-0.2-0.4-0.2H128.9z"/>
		<path class="st3" d="M161.7,187.1c0.3-1.3,0.9-2.5,1.8-3.5c1.2-1.2,2.7-2.4,4.6-3.4c2.1-1.1,3.9-2,5.6-2.6c0,0,0.1,0,0.3-0.1
			c-0.3,1.5-2.1,10-2.1,10.2c-5.1,3.4-7.5,3.8-8.3,3.8c-0.8,0-1.1-0.3-1.3-0.5c-0.5-0.6-0.7-1.3-0.8-2.1c0,0,0.2-1.4,0.2-1.4
			C161.6,187.3,161.7,187.2,161.7,187.1L161.7,187.1z M174.4,176.2l-1.1,0.4c-1.7,0.6-3.6,1.5-5.7,2.7c-1.9,1.1-3.6,2.3-4.8,3.6
			c-1.1,1.2-1.8,2.5-2.1,4l0,0.2c0,0-0.2,1.7-0.2,1.7c0.1,1.1,0.4,2,1,2.7c0.4,0.4,0.9,0.9,2.1,0.9c1.1,0,3.7-0.5,9-4.1
			c0.1-0.1,0.2-0.2,0.2-0.3l2.3-11.2c0-0.2,0-0.4-0.2-0.5C174.8,176.1,174.6,176.1,174.4,176.2z"/>
		<path class="st3" d="M177.3,165.7 M176.6,165.3c0,0-0.2,0.1-0.2,0.1C176.5,165.3,176.6,165.3,176.6,165.3z M165.6,169
			c1.5-1.5,2.4-3.3,2.9-5.5l0-0.1l0.3-2l0.1-0.5l0.1-0.5c0.1-0.6,0.4-1.2,1.4-1.9c1.1-0.7,2.2-1,3.3-1c2.8,0,3.1,0.8,3.1,2.7l0,0.2
			c0,0,0,0.6,0,0.6c0,0.8-0.1,2.2-0.6,4.5c-0.5,0.2-8.4,2.9-8.4,2.9c-0.9,0.3-1.9,0.7-2.9,1.1C165.2,169.3,165.4,169.1,165.6,169z
			 M153,159.5c-0.3,0.8-0.6,1.5-0.8,2.3l-0.1,0.2l-0.2,2.5c0.2,4.4,3,7.1,7.3,7.1c0.4,0,0.9-0.1,1.3-0.1c-0.5,0.2-0.9,0.4-1.4,0.6
			c-3.5,1.8-6.5,3.9-9.1,6.4c-2.5,2.5-4.2,5.3-5.1,8.4c-0.1,0-0.1,0-0.2,0.1l-1,1.7c-0.4,0.7-1,1.3-1.7,1.8c-0.5,0.3-1,0.5-1.5,0.5
			c0,0,0,0,0,0c0,0,0-0.2,0-0.2c0-0.7,0.1-1.7,0.4-3.1c0,0,5.9-27.5,6-28.2C147.9,159.5,152,159.5,153,159.5z M170,157.7
			c-1.4,0.9-1.7,1.8-1.9,2.5l-0.1,0.4c0,0-0.1,0.1-0.1,0.2l-0.3,2.4l0,0.1c-0.4,2-1.3,3.6-2.7,5c-1.5,1.5-3.4,2.3-5.6,2.3
			c-3.8,0-6.2-2.3-6.4-6.1l0.2-2.3l0-0.1c0.2-1,0.6-1.9,1-2.8c0.1-0.2,0.1-0.3,0-0.5c-0.1-0.1-0.2-0.2-0.4-0.2h-6.9
			c-0.2,0-0.4,0.2-0.5,0.4l-6.1,28.6c-0.3,1.4-0.4,2.5-0.4,3.3l0,0.3c0,0,0.1,0.6,0.1,0.6c0,0.2,0.2,0.4,0.5,0.4l0.2,0
			c0.8,0,1.5-0.2,2.3-0.7c0.8-0.5,1.5-1.2,2-2.1c0,0,0.8-1.5,0.9-1.6c0.1-0.1,0.2-0.1,0.2-0.2c0.8-3,2.5-5.8,4.9-8.2
			c2.4-2.4,5.4-4.5,8.8-6.2c3.2-1.6,6.1-2.9,8.6-3.8l8.7-3c0.2-0.1,0.3-0.3,0.3-0.4l0-0.1c0.4-1.9,0.7-3.5,0.7-4.8l0-0.6l0-0.1
			c-0.1-2.3-0.8-3.6-4.1-3.6C172.5,156.5,171.2,156.9,170,157.7z"/>
		<path class="st3" d="M218.7,165.2 M205.9,190.2c0,0,5.6-26.4,6.4-30.3c0.3,1.4,0.6,2.9,0.6,2.9c0,0.1,0.1,0.3,0.2,0.3
			c0.1,0.1,0.3,0.1,0.4,0l3.5-1.2c0,0,0.6-0.2,1.2-0.3c0,0.9-0.2,2.1-0.5,3.4c0,0,0,0.1,0,0.1l-2.7,13.2l-2.5,10.7
			c-0.5,2.5-0.9,3.7-1.2,4.2c-0.2,0.4-0.4,0.6-0.8,0.8c-0.1,0-0.8,0.4-3,0.4c-1.3,0-2-0.1-2.4-0.2
			C205.2,193.8,205.3,192.6,205.9,190.2z M212.3,157.1c-0.2,0-0.4,0.2-0.5,0.4l-6.9,32.5c-0.6,2.7-0.7,3.9-0.7,4.3
			c0,0.1,0,0.4,0,0.4c0,0.2,0.1,0.3,0.3,0.4c0.3,0.1,1.2,0.3,3,0.4c2.2,0,3.1-0.4,3.4-0.5c0.6-0.3,1-0.7,1.2-1.3
			c0.3-0.6,0.8-1.9,1.3-4.4l2.5-10.7l2.7-13.2c0,0,0,0,0,0c0.4-1.4,0.5-2.7,0.5-3.7l0-0.3c0,0,0-0.2,0-0.2c0-0.1-0.1-0.3-0.2-0.4
			c-0.1-0.1-0.3-0.1-0.4-0.1l-1.8,0.5c0,0-2.3,0.8-3,1c-0.2-0.9-1-4.6-1-4.6C212.7,157.2,212.5,157.1,212.3,157.1z"/>
		<path class="st0" d="M242.1,129.2c0-2.1-0.9-3.9-2.4-5.3c-1.4-1.3-3.3-2-5.3-2c-2.3,0-4.4,0.8-6.2,2.2l0,0c-1.9,1.5-3,3.4-3.5,5.7
			l-0.1,0.2l0-0.1c0,0-0.1,1.9-0.1,2.1c0.1,2,0.9,3.8,2.4,5.2c1.5,1.3,3.3,2.1,5.3,2.1c2.2,0,4.3-0.8,6.2-2.4c1.9-1.6,3-3.5,3.4-5.7
			c0.2-0.7,0.3-1.3,0.3-1.9C242.1,129.3,242.1,129.3,242.1,129.2z"/>
		<path class="st3" d="M225.1,130c0.5-2.2,1.6-4,3.4-5.4c1.8-1.4,3.8-2.1,5.9-2.1c1.9,0,3.6,0.6,5,1.9c1.4,1.3,2.2,3,2.2,4.9
			c0,0,0,0.2,0,0.2c0,0.5-0.1,1-0.3,1.7c-0.4,2.1-1.5,3.9-3.3,5.4c-1.8,1.5-3.8,2.3-5.9,2.3c-1.8,0-3.6-0.7-4.9-1.9
			c-1.4-1.3-2.2-3-2.3-4.8C225,132.1,225.1,130.1,225.1,130C225.1,130,225.1,130,225.1,130z M227.9,123.8c-1.9,1.6-3.2,3.6-3.7,5.9
			l-0.1,0.2c0,0-0.1,2-0.1,2c0.1,2.2,1,4.1,2.6,5.6c1.6,1.4,3.5,2.2,5.6,2.2c2.4,0,4.6-0.8,6.6-2.5c2-1.6,3.2-3.6,3.6-5.9
			c0.2-0.8,0.3-1.4,0.3-2l0-0.2c0,0,0,0,0,0c0-2.2-0.9-4.2-2.6-5.6c-1.5-1.4-3.5-2.1-5.6-2.1C232,121.5,229.8,122.3,227.9,123.8z"/>
		<path class="st0" d="M496.5,167.3l-4.6,22c-0.8,3.7-1.7,4.7-1.9,4.9c0,0-0.9,0.8-4.5,0.8h-4.9c-2,0-2.9-0.2-3.3-0.3
			c0,0,0-0.1,0-0.1l0-0.1c0,0,0,0,0-0.1c0-0.3,0.1-1.3,0.7-4.3c0,0,1.6-7.8,1.6-7.8c0,0,2-9.8,2-9.8s1.3-6.1,1.5-7
			c4.2-3.4,8-5.2,10.9-5.2c2.4,0,2.8,0.7,2.9,2.6c0,0.2,0,0.3,0,0.5C497,164.2,496.9,165.4,496.5,167.3z M467.3,167.4l-4.7,21.9
			c-0.8,3.7-1.7,4.7-1.9,4.9c-0.1,0.1-1,0.8-4.6,0.8h-4.8c-2.1,0-3-0.2-3.4-0.4c0-0.1,0-0.1,0-0.1l0-0.2c0,0,0,0,0,0
			c0-0.2,0-1.2,0.7-4.2c0,0,4.9-22.9,5.3-24.9c0.8-0.8,1.7-1.5,2.8-2.2c1.4-0.9,2.8-1.6,4.3-2.2c1.3-0.5,2.6-0.8,3.6-0.8
			c1.7,0,2.8,0.2,2.9,3.2l0,0.1c0,0.3,0,0.7,0,1C467.6,165.4,467.5,166.4,467.3,167.4z M436.2,176l-2.7,12.7c-0.5,2-0.9,3.5-1.4,4.6
			c-0.3,0.7-0.7,1-1,1.2c-0.2,0.1-1.1,0.5-3.4,0.5H425v0h-2.2c-2.3,0-3-0.5-3.2-0.6c-0.1-0.1-0.4-0.3-0.4-1.2c0-0.1,0-0.1,0-0.2
			c0-0.6,0.1-1.7,0.4-3.3c0,0,4.5-21.2,4.8-22.5c3.1-4.2,4.8-5.7,5.4-6.1c0.4,0.4,1.1,0.9,1.1,0.9c1,0.9,1.8,1.4,2.4,1.8
			c0.9,0.6,2.1,0.8,3.3,0.8c0.7,0,1.4-0.1,2.1-0.3c-0.1,0.3-0.1,0.7-0.2,1C438.5,165.3,436.2,176,436.2,176z M401.3,185.4l0.4-2.1
			c0,0,0.3-1.5,0.3-1.5l0,0.1l1.4-6.3c0,0,1.9-7.8,1.9-7.8l0-0.1c0.4-2,0.6-3.9,0.8-5.6l1.7-0.6c1.2-0.4,1.9-0.6,2.2-0.6
			c0,0.1,0,0.1,0,0.2c0,0,0,0.1,0,0.1c0,0.5-0.1,1.5-0.5,3.6l0,0.1l-1.1,5.4l-1.4,6.2l-1.2,5.6c0,0-0.4,2.1-0.9,4l-1.9,1.7
			c-1,0.9-1.8,1.5-2.6,2.1C400.6,188.9,400.9,187.5,401.3,185.4z M385.6,187.9c-5.1,3.4-7.6,4-8.7,4c-1,0-1.4-0.3-1.7-0.7l0,0
			c-0.6-0.7-0.8-1.4-0.9-2.4c0-0.6,0.1-1.1,0.2-1.6l0-0.1l0-0.1c0.3-1.4,0.9-2.6,2-3.7c1.2-1.3,2.8-2.5,4.7-3.5c2.1-1.1,4-2,5.6-2.7
			c0,0,0.8-0.3,1.1-0.4C386.9,181.5,385.9,186.4,385.6,187.9z M346.4,165.5l-0.4,2.9c0,0-0.5,2.3-0.5,2.3l-0.1,0.2l-3.9,19
			c-0.6,2.4-1.1,3.4-1.3,3.8c-0.2,0.4-0.5,0.6-0.9,0.8c-0.4,0.2-1.5,0.4-3.9,0.4H331c-2,0-2.9-0.2-3.3-0.3c0,0,0-0.1,0-0.1
			c0-0.1,0-1,0.7-4.6c0,0,4.6-22.1,5.1-24.2c2-1.7,3.8-3,5.5-4c1.6-0.9,3.2-1.4,5-1.4c1.5,0,2.4,0.2,2.5,3
			C346.5,163.1,346.4,165.5,346.4,165.5z M323.5,140.4c0,0-0.1,0.5-0.3,1.2c-0.2-2-0.8-3.8-1.6-5.4l0.1,0c1.1-0.3,1.7-0.4,2.2-0.5
			c0,0.1,0,0.2,0,0.3c0,0,0,0.1,0,0.1C324,137.4,323.9,138.8,323.5,140.4z M304.2,148.9c-0.4,2.2-1.4,4.3-2.7,6.2
			c-1.4,1.9-3.1,3.5-5,4.7c-1.8,1.1-3.7,1.6-5.8,1.6c-1.1,0-2.7-0.2-4.5-0.4c1-4.9,4.5-21,5.2-24.1c1.8-0.4,3.2-0.5,4.3-0.5
			c3,0,5.1,0.7,6.5,2.1c1.5,1.5,2.2,3.5,2.3,6.2l0,0.1C304.7,146.1,304.5,147.5,304.2,148.9z M509.2,194.9c-2.1,0-2.7-0.3-2.8-0.4
			c0,0,0-0.1,0-0.1c0-0.5,0.2-1.7,0.8-4.4l4.4-20.8c0.7-3.5,1-6.2,1-8.5c0-0.2,0-0.3,0-0.5c-0.3-8.3-5.1-13.1-13.1-13.1
			c-3.9,0-7.6,1-11,3.1c-1.9,1.1-3.9,2.6-6,4.3c-0.6-1.4-1.4-2.7-2.4-3.7c-2.3-2.4-5.6-3.7-9.7-3.7c-3.8,0-7.4,1-10.6,3
			c-0.9,0.6-2,1.3-3,2.1c0-0.2,1.1-5,1.1-5h-7l-7.2,2.7c-0.7-0.7-1.6-1.3-2.5-1.8c-1.2-0.6-2.6-0.9-4.2-0.9c-3,0-6.1,1.2-9,3.6
			c0.2-0.7,0.8-3.6,0.8-3.6h-6.8l-17,6.3c-2.1-3.3-6.4-6.3-15.3-6.3c-2.1,0-4.4,0.3-6.7,0.8l0,0c-2.4,0.5-4.7,1.3-6.9,2.4
			c-2.3,1.1-4.4,2.7-6.1,4.6c-1.8,2-3,4.3-3.6,7l-0.1,0.2l0,0l-0.2,2.4c0.2,4.1,2.8,6.6,6.9,6.6c2.3,0,4.4-0.8,6-2.5
			c1.4-1.4,2.3-3.2,2.8-5.2l0-0.1l0,0l0.3-1.9c0,0,0.1-0.4,0.1-0.5l0-0.1l0.1-0.4c0.1-0.6,0.4-1.4,1.7-2.2c1.2-0.7,2.4-1.1,3.6-1.1
			c3,0,3.6,1,3.6,3.1l0,0.1l0,0.1c0,0.2,0,0.4,0,0.6c0,0.9-0.1,2.4-0.6,4.7l0,0.1c0,0,0,0.1,0,0.1c-2.5,0.9-8.7,3-8.7,3
			c-2.5,0.9-5.4,2.1-8.7,3.8c-3.4,1.7-6.5,3.9-8.9,6.3c-2.7,2.7-4.5,5.8-5.2,9.2l0,0.1l0,0.1c-0.2,1-0.3,2.1-0.3,3.3
			c0,0.4,0,0.8,0,1.1c0,0.8,0.1,1.6,0.2,2.3c-1.8,0-2.4-0.3-2.5-0.4c0,0,0-0.1,0-0.3c0,0,0,0,0,0c0-0.3,0.1-1.5,0.8-4.1l0-0.1
			l3.7-17.1c1-5.3,1.5-9.2,1.5-12c0-0.3,0-0.6,0-0.9c-0.3-8.1-4.9-12.8-12.6-12.8c-3.6,0-7.2,1.1-10.6,3.1c-0.8,0.5-1.7,1.1-2.5,1.7
			c2.1-10.1,6.4-30.1,6.4-30.1l-4.1,0h-3.1l-18.7,7l0.4,2.1c-2.5-1.9-5.5-3.3-9-4.2c-3.9-0.9-8.1-1.4-12.6-1.4h-26h-2.8l-1.5,8.6
			h3.9c3.5,0,4.7,0.5,5,0.6c0,0,0.2,0.2,0.2,0.7c0,0.5,0,1.8-0.8,5.3l-9.8,46.2c-0.8,3.5-1.4,5.2-1.8,6c-0.4,0.7-0.9,1.1-1.6,1.4
			c-0.6,0.2-2.1,0.6-5.6,0.6h-2.7l-1.9,8.6h37.4l1.5-8.6h-4c-1.9,0-3.4-0.1-4.4-0.3c-0.7-0.1-0.9-0.3-0.9-0.3l0,0
			c0,0-0.1-0.3-0.1-0.8c0-0.1,0-0.2,0-0.3c0-0.7,0.1-2,0.7-4.9c0,0,2.8-13.1,3.7-17.6c3.2,0.6,6.3,1,9.2,1c7.2,0,13.5-1.9,18.9-5.7
			c3.1-2.2,5.6-4.9,7.4-8.2c-0.7,3.2-1.2,5.6-1.2,5.6c-1.9,8.6-3.6,17-5.2,25.1c0,0.1-1.1,3.8-1.1,3.8c-0.2,0.7-0.5,1.2-0.8,1.6
			c-0.2,0.3-0.6,0.5-1.1,0.6c-0.5,0.2-1.5,0.4-3.1,0.4h-2.7l-1.9,8.6h58.9l0.4-2.4c2.2,2.2,5.2,3.4,8.8,3.4c3.3,0,6.4-0.8,9.1-2.3
			c1.3-0.7,2.8-1.6,4.6-2.8c1,3.2,3.5,5.1,7.2,5.1c1.5,0,3-0.3,4.6-1h26.8h2.2h86.5l1.5-8.6H509.2z"/>
		<path class="st3" d="M382.2,161.2l0-0.3l0.1-0.5c0.1-0.6,0.4-1.2,1.4-1.9c1.1-0.7,2.2-1,3.3-1c2.8,0,3.1,0.8,3.1,2.7l0,0.2
			c0,0,0,0.6,0,0.6c0,0.8-0.1,2.2-0.6,4.5c-0.5,0.2-8.4,2.9-8.4,2.9c-0.9,0.3-1.9,0.7-2.9,1.1c0.2-0.2,0.4-0.3,0.6-0.5
			c1.5-1.5,2.4-3.3,2.9-5.5l0-0.1l0.3-2C382.2,161.4,382.2,161.2,382.2,161.2z M274,135.1c0,0,0.1,0,0.1,0
			C274,135.1,274,135.1,274,135.1z M338.7,122.5c0,0,2.6,0,3.5,0c-0.2,1.1-6.3,29.5-6.3,29.5c0,0,0,0.1,0,0.1c0,0.2,0.1,0.3,0.2,0.4
			c0.2,0.1,0.4,0.1,0.6,0l2.5-1.7c3.3-2,6.8-3.1,10.3-3.1c7.4,0,11.9,4.5,12.1,12.3c0,0,0,0.9,0,0.9c0,2.8-0.5,6.7-1.5,11.9
			l-3.7,17.1c-0.7,2.8-0.8,3.9-0.8,4.3c0,0.1,0,0.3,0,0.3c0,0.2,0.1,0.4,0.3,0.4c0.2,0.1,0.8,0.4,2.7,0.4c0.1,0,0.3-0.1,0.4-0.2
			c0.1-0.1,0.1-0.3,0.1-0.4l-0.2-2.2c0,0,0-1.1,0-1.1c0-1.1,0.1-2.2,0.3-3.2l0-0.1c0.7-3.3,2.4-6.3,5.1-9c2.5-2.4,5.4-4.5,8.8-6.2
			c3.3-1.6,6.1-2.9,8.6-3.8l8.7-3c0.2-0.1,0.3-0.3,0.3-0.4l0-0.1c0.4-1.9,0.7-3.5,0.7-4.8l0-0.6l0-0.1c-0.1-2.3-0.8-3.6-4.1-3.6
			c-1.3,0-2.6,0.4-3.9,1.2c-1.4,0.9-1.7,1.8-1.9,2.5l-0.1,0.4c0,0-0.1,0.1-0.1,0.2l-0.1,0.5l-0.3,1.9l0,0.1c-0.4,2-1.3,3.6-2.7,5
			c-1.5,1.5-3.4,2.3-5.6,2.3c-3.8,0-6.2-2.3-6.4-6.1l0.2-2.3l0-0.1c0.6-2.5,1.8-4.8,3.5-6.7c1.7-1.9,3.7-3.4,5.9-4.4
			c2.1-1,4.4-1.8,6.8-2.3c2.4-0.5,4.6-0.8,6.6-0.8c7.4,0,12.4,2,14.9,6c0.1,0.2,0.4,0.3,0.6,0.2c0,0,16.8-6.2,16.9-6.2
			c0.2,0,5.2,0,6.2,0c-0.2,0.8-0.6,3-0.6,3c0,0,0,0.1,0,0.1c0,0.2,0.1,0.3,0.2,0.4c0.2,0.1,0.4,0.1,0.6,0c2.9-2.3,5.8-3.5,8.7-3.5
			c1.5,0,2.8,0.3,4,0.8c0.9,0.4,1.7,1,2.4,1.7c0.1,0.1,0.3,0.2,0.5,0.1c0,0,6.9-2.6,7.1-2.6c0.2,0,5.3,0,6.3,0
			c-0.2,0.9-0.9,4.5-0.9,4.5c0,0,0,0.1,0,0.1c0,0.2,0.1,0.3,0.2,0.4c0.2,0.1,0.4,0.1,0.6,0l3-2c3.1-1.9,6.6-2.9,10.4-2.9
			c4,0,7.1,1.2,9.3,3.5c0.9,1,1.7,2.1,2.3,3.6c0.1,0.1,0.2,0.2,0.3,0.3c0.2,0,0.3,0,0.4-0.1c2.2-1.8,4.2-3.2,6-4.3c3.3-2,7-3,10.8-3
			c7.7,0,12.3,4.6,12.6,12.6l0,0.5c0,2.2-0.3,5-1,8.4l-4.4,20.8c-0.6,2.6-0.8,3.9-0.8,4.5c0,0,0,0.2,0,0.2l0,0
			c0,0.2,0.1,0.3,0.3,0.4c0.2,0.1,0.9,0.4,3,0.4c0,0,2.5,0,3.4,0c-0.2,0.9-1.2,6.9-1.3,7.6c-0.8,0-115,0-115,0c-0.1,0-0.1,0-0.2,0
			c-1.5,0.6-3,0.9-4.4,0.9l0,0c-3.4,0-5.9-1.7-6.8-4.7c0-0.1-0.2-0.3-0.3-0.3c-0.1-0.1-0.3,0-0.4,0l-4.6,2.8
			c-2.7,1.5-5.7,2.2-8.9,2.2c-3.5,0-6.4-1.1-8.5-3.2c-0.1-0.1-0.3-0.2-0.5-0.1c-0.2,0.1-0.3,0.2-0.3,0.4c0,0-0.2,1.4-0.3,2
			c-0.8,0-56.7,0-57.9,0c0.2-1,1.6-7,1.7-7.6c0.6,0,2.3,0,2.3,0c1.7,0,2.7-0.2,3.3-0.4c0.6-0.2,1-0.5,1.3-0.8c0.4-0.4,0.7-1,0.9-1.8
			c0,0,1.1-3.8,1.1-3.8c1.6-8.1,3.3-16.5,5.2-25.1l1.2-5.6c0,0,0-0.1,0-0.1c0-0.2-0.1-0.4-0.3-0.5c-0.2-0.1-0.5,0-0.6,0.2
			c-1.8,3.2-4.3,5.9-7.3,8c-5.3,3.7-11.5,5.6-18.6,5.6c-2.5,0-5.5-0.3-9.1-1c-0.3,0-0.5,0.1-0.6,0.4l-3.7,17.6
			c-0.6,2.8-0.8,4.3-0.8,5l0,0.4c0,0,0.1,0.8,0.1,0.8c0,0.1,0.1,0.2,0.2,0.3c0.1,0.1,0.4,0.3,1.1,0.4c1.1,0.2,2.6,0.3,4.5,0.3
			c0,0,2.5,0,3.4,0c-0.2,0.9-1.2,6.9-1.3,7.6c-0.8,0-35.2,0-36.4,0c0.2-1,1.6-7,1.7-7.6c0.6,0,2.3,0,2.3,0c3.6,0,5.2-0.4,5.8-0.7
			c0.8-0.3,1.4-0.9,1.8-1.7c0.4-0.8,1.1-2.5,1.9-6.1l9.8-46.2c0.5-2.3,0.8-4.1,0.8-5.1c0-0.1,0-0.2,0-0.3c0-0.6-0.2-1-0.4-1.1
			c-0.4-0.2-1.7-0.7-5.2-0.7c0,0-2.5,0-3.4,0c0.2-0.9,1.2-6.9,1.3-7.6c0.6,0,28.4,0,28.4,0c4.4,0,8.6,0.5,12.4,1.4
			c3.4,0.8,6.4,2.2,8.8,4.1c0.2,0.1,0.4,0.1,0.6,0c0.1-0.1,0.2-0.3,0.2-0.4c0,0,0-0.1,0-0.1c0,0-0.2-1.1-0.3-1.6
			c0.7-0.3,18.1-6.8,18.2-6.8C335.8,122.5,338.7,122.5,338.7,122.5z M338.7,121.5h-3.1c-0.1,0-0.1,0-0.2,0l-18.7,7
			c-0.2,0.1-0.3,0.3-0.3,0.5c0,0,0,0.1,0,0.1c0,0,0.1,0.5,0.2,0.9c-2.4-1.6-5.1-2.9-8.2-3.6c-3.9-0.9-8.2-1.4-12.7-1.4h-28.8
			c-0.2,0-0.4,0.2-0.5,0.4l-1.5,8.6c0,0.1,0,0.3,0.1,0.4c0.1,0.1,0.2,0.2,0.4,0.2h3.9c3.1,0,4.3,0.3,4.6,0.5c0,0.1,0.1,0.4,0.1,0.4
			c0,0.1,0,0.2,0,0.3c0,0.7-0.1,2.1-0.8,4.9l-9.8,46.2c-0.8,3.5-1.4,5.1-1.8,5.8c-0.3,0.6-0.7,1-1.3,1.2c-0.5,0.2-1.9,0.6-5.4,0.6
			h-2.7c-0.2,0-0.4,0.2-0.5,0.4l-1.9,8.6c0,0,0,0.1,0,0.1c0,0.1,0,0.2,0.1,0.3c0.1,0.1,0.2,0.2,0.4,0.2h37.4c0.2,0,0.4-0.2,0.5-0.4
			l1.5-8.6c0-0.1,0-0.3-0.1-0.4c-0.1-0.1-0.2-0.2-0.4-0.2h-3.9c-1.9,0-3.4-0.1-4.4-0.3c0,0-0.4-0.1-0.6-0.2c0-0.2-0.1-0.5-0.1-0.5
			c0,0,0-0.3,0-0.3c0-0.7,0.1-2,0.7-4.8c0,0,3.1-14.5,3.6-17.2c3.4,0.6,6.3,0.9,8.8,0.9c7.3,0,13.7-1.9,19.2-5.8
			c2.4-1.7,4.4-3.7,6.1-6c-0.3,1.5-0.7,3-0.7,3c-1.8,8.6-3.6,17-5.2,25.1c0,0-1.1,3.7-1.1,3.7c-0.2,0.6-0.5,1.1-0.7,1.4
			c-0.2,0.2-0.5,0.4-0.9,0.5c-0.5,0.2-1.4,0.4-3,0.4h-2.7c-0.2,0-0.4,0.2-0.5,0.4l-1.9,8.6c0,0,0,0.1,0,0.1c0,0.1,0,0.2,0.1,0.3
			c0.1,0.1,0.2,0.2,0.4,0.2h58.9c0.2,0,0.4-0.2,0.5-0.4c0,0,0.1-0.9,0.3-1.6c2.2,1.9,5,2.9,8.5,2.9l0,0c3.4,0,6.5-0.8,9.4-2.4
			c0,0,3-1.8,4.2-2.5c1.2,3.1,3.8,4.9,7.4,4.9l0,0c1.5,0,3-0.3,4.7-1c0.1,0,115.4,0,115.4,0c0.2,0,0.4-0.2,0.5-0.4l1.5-8.6
			c0,0,0-0.1,0-0.1c0-0.1,0-0.2-0.1-0.3c-0.1-0.1-0.2-0.2-0.4-0.2h-4c-1.3,0-2-0.1-2.3-0.2c0.1-0.6,0.2-1.7,0.8-4.1l4.4-20.8
			c0.7-3.5,1-6.3,1-8.6l0-0.5c-0.3-8.6-5.3-13.6-13.6-13.6c-4,0-7.8,1.1-11.3,3.1c-1.7,1-3.6,2.4-5.6,4c-0.6-1.3-1.3-2.4-2.2-3.3
			c-2.4-2.5-5.8-3.8-10-3.8c-3.9,0-7.6,1-10.9,3c0,0-1.2,0.8-2,1.4c0.3-1.4,0.8-3.8,0.8-3.8c0,0,0-0.1,0-0.1c0-0.1,0-0.2-0.1-0.3
			c-0.1-0.1-0.2-0.2-0.4-0.2h-7c-0.1,0-0.1,0-0.2,0c0,0-6.4,2.4-6.9,2.5c-0.7-0.7-1.5-1.3-2.4-1.7c-1.3-0.6-2.8-0.9-4.4-0.9
			c-2.8,0-5.6,1-8.3,3c0.2-1.1,0.5-2.4,0.5-2.4c0,0,0-0.1,0-0.1c0-0.1,0-0.2-0.1-0.3c-0.1-0.1-0.2-0.2-0.4-0.2h-6.8
			c-0.1,0-0.1,0-0.2,0c0,0-16,5.9-16.7,6.1c-2.7-4.1-7.9-6.2-15.5-6.2c-2.1,0-4.4,0.3-6.8,0.8c-2.4,0.5-4.8,1.3-7,2.4
			c-2.4,1.2-4.5,2.7-6.2,4.7c-1.8,2.1-3.1,4.5-3.7,7.2l-0.1,0.2l-0.2,2.5c0.2,4.4,3,7.1,7.3,7.1c0.4,0,0.9-0.1,1.3-0.1
			c-0.5,0.2-0.9,0.4-1.4,0.6c-3.5,1.8-6.5,3.9-9.1,6.4c-2.8,2.7-4.6,5.9-5.3,9.4l0,0.2c-0.2,1.1-0.3,2.2-0.3,3.3l0,1.2
			c0,0,0.1,1.1,0.2,1.8c-0.8,0-1.2-0.1-1.4-0.2c0-0.3,0.1-1.3,0.8-3.9l3.7-17.2c1-5.3,1.5-9.3,1.5-12.1l0-0.9
			c-0.3-8.4-5-13.3-13.1-13.3c-3.7,0-7.4,1.1-10.8,3.2c0,0-0.8,0.6-1.6,1c0.5-2.2,6.2-28.9,6.2-28.9c0,0,0-0.1,0-0.1
			c0-0.1,0-0.2-0.1-0.3c-0.1-0.1-0.2-0.2-0.4-0.2H338.7z"/>
		<path class="st3" d="M304.7,149C304.7,149,304.7,149,304.7,149C304.7,149,304.7,149,304.7,149C304.7,149,304.7,149,304.7,149z
			 M295.7,136.9c2.8,0,4.9,0.6,6.2,2c1.4,1.4,2.1,3.3,2.2,5.8l0,0.1c0.1,1.3,0,2.6-0.3,4c0,0,0,0,0,0c-0.4,2.1-1.3,4.2-2.6,6.1
			c-1.3,1.9-3,3.4-4.8,4.5c-1.7,1-3.5,1.6-5.5,1.6c-1,0-2.3-0.1-3.9-0.4c0.2-1,4.8-22.7,5-23.3C293.5,137,294.8,136.9,295.7,136.9z
			 M291.4,136.4c-0.2,0-0.3,0.2-0.4,0.4l-5.2,24.1c0,0.1,0,0.3,0.1,0.4c0.1,0.1,0.2,0.2,0.3,0.2c1.9,0.3,3.4,0.4,4.5,0.4h0
			c2.2,0,4.1-0.6,6-1.7c2-1.2,3.7-2.8,5.1-4.8c1.4-2,2.4-4.2,2.8-6.4c0.2-1.1,0.4-2.2,0.4-3.3c0-0.3,0-0.7,0-1
			c-0.1-2.9-0.9-5-2.4-6.6c-1.5-1.5-3.8-2.3-6.9-2.3C294.6,135.9,293.2,136.1,291.4,136.4z"/>
		<path class="st3" d="M323.5,136.3c0,0.9-0.1,1.8-0.3,2.8c-0.2-0.9-0.5-1.7-0.9-2.5C322.7,136.5,323.1,136.4,323.5,136.3z
			 M323.9,135.2l-2.2,0.5l-0.1,0c-0.1,0-0.3,0.1-0.3,0.3c-0.1,0.1-0.1,0.3,0,0.4c0.8,1.6,1.3,3.3,1.6,5.2c0,0.2,0.2,0.4,0.5,0.4
			c0.2,0,0.5-0.2,0.5-0.4c0,0,0.3-1.2,0.3-1.2c0.3-1.6,0.5-3.1,0.5-4.4c0-0.1,0-0.1,0-0.1c0,0,0-0.3,0-0.3c0-0.1-0.1-0.3-0.2-0.4
			C324.2,135.2,324,135.2,323.9,135.2z"/>
		<path class="st3" d="M339.2,162.1c1.5-0.9,3.1-1.3,4.7-1.3c1.3,0,2,0,2.1,2.5c0,0,0,0,0,0c0-0.1,0-0.3,0.1-0.3c0,0,0,0,0,0
			c-0.1,0.2-0.2,0.8-0.3,2.5c0,0-0.4,2.9-0.4,2.9c0-0.1-0.5,2.3-0.5,2.3l-0.1,0.2l-3.9,19c-0.6,2.4-1.1,3.4-1.3,3.7
			c-0.2,0.3-0.4,0.4-0.7,0.6c-0.3,0.1-1.4,0.4-3.7,0.4H331c-1.5,0-2.3-0.1-2.8-0.2c0-0.5,0.2-1.6,0.7-4.2c0,0,4.6-22.3,5-24.1
			C335.9,164.3,337.7,163,339.2,162.1z M338.7,161.3c-1.6,0.9-3.5,2.3-5.6,4.1c-0.1,0.1-0.1,0.2-0.2,0.3l-5.1,24.2
			c-0.7,3.6-0.7,4.5-0.7,4.7c0,0.2,0.1,0.5,0.4,0.6c0.4,0.1,1.4,0.3,3.4,0.3h4.3c2.4,0,3.6-0.3,4-0.4c0.5-0.2,0.9-0.5,1.2-1
			c0.3-0.4,0.8-1.5,1.4-4l3.9-19l0.1-0.2c0,0,0.5-2.4,0.5-2.4c0.5-3,0.5-3,0.5-3c0,0,0,0,0,0l0.1-2.2c-0.1-3-1.1-3.5-3-3.5
			C342.1,159.8,340.4,160.3,338.7,161.3z"/>
		<path class="st3" d="M375,187.1c0.3-1.3,0.9-2.5,1.8-3.5c1.2-1.2,2.7-2.4,4.6-3.4c2.1-1.1,3.9-2,5.6-2.6c0,0,0.1,0,0.3-0.1
			c-0.3,1.4-2,9.8-2.1,10.2c-5.1,3.4-7.5,3.8-8.3,3.8c-0.8,0-1.1-0.2-1.3-0.5c-0.5-0.6-0.7-1.3-0.8-2.1c0,0,0.2-1.4,0.2-1.4
			C375,187.3,375,187.2,375,187.1L375,187.1z M387.8,176.2l-1.1,0.4c-1.7,0.6-3.6,1.5-5.7,2.7c-1.9,1.1-3.6,2.3-4.8,3.6
			c-1.1,1.2-1.8,2.5-2.1,4l0,0.2c0,0-0.2,1.7-0.2,1.7c0.1,1.1,0.4,2,1,2.7c0.4,0.4,0.9,0.9,2.1,0.9c1.1,0,3.7-0.5,9-4.1
			c0.1-0.1,0.2-0.2,0.2-0.3l2.3-11.2c0-0.2,0-0.4-0.2-0.5C388.1,176.1,387.9,176.1,387.8,176.2z"/>
		<path class="st3" d="M408,161.9c0,0,1-0.3,1.6-0.5c0,0.5-0.1,1.5-0.5,3.2l0,0.1l-1.1,5.4l-1.4,6.1l-1.2,5.6c0,0-0.8,3.5-0.8,3.8
			c-0.2,0.2-1.8,1.6-1.8,1.6c0,0-0.9,0.7-1.6,1.3c0.2-0.9,0.3-2,0.6-3.2c0,0,0.4-2.1,0.4-2.1c0,0,0.2-1,0.3-1.4c0,0,0,0,0,0l1.4-6.3
			l1.9-7.8c0.4-2,0.6-3.8,0.8-5.5C407,162.3,408,161.9,408,161.9z M410,160.4l-2.3,0.6l-1.7,0.6c-0.2,0.1-0.3,0.2-0.3,0.4
			c-0.2,1.8-0.4,3.6-0.8,5.6c-1.9,8-1.9,8-1.9,8c0,0-1.3,5.8-1.3,6c0,0,0,0,0,0l-0.3,1.5l-0.4,2.1c0,0,0,0,0,0
			c-0.4,1.8-0.6,3.3-0.8,4.5c0,0.2,0.1,0.4,0.2,0.5c0.2,0.1,0.4,0.1,0.5,0l2.6-2.2l1.9-1.7c0.1-0.1,0.1-0.2,0.2-0.3
			c0.9-4,0.9-4,0.9-4.1l1.2-5.5l1.4-6.1l1.1-5.4l0-0.1c0.4-2,0.5-3.1,0.5-3.6l0-0.2c0,0,0-0.2,0-0.2c0-0.1-0.1-0.3-0.2-0.4
			C410.3,160.4,410.1,160.3,410,160.4z"/>
		<path class="st3" d="M429.8,161.7c0.3,0.3,0.8,0.7,0.8,0.7c1,0.9,1.8,1.4,2.4,1.8c1,0.6,2.2,0.9,3.6,0.9l0,0c0.5,0,1-0.1,1.5-0.2
			c0,0.1-0.1,0.3-0.1,0.3c0,0-2.4,10.7-2.4,10.7l-2.7,12.7c-0.5,1.9-0.9,3.5-1.4,4.5c-0.3,0.6-0.5,0.8-0.8,1
			c-0.1,0.1-0.9,0.4-3.2,0.4l-4.9,0c-2.2,0-2.8-0.4-2.9-0.5c-0.2-0.1-0.2-0.6-0.2-0.9l0-0.2c0-0.6,0.1-1.6,0.4-3.2
			c0,0,4.7-22.2,4.8-22.4C427.5,163.7,429.1,162.2,429.8,161.7z M429.6,160.7c-0.7,0.5-2.5,1.9-5.6,6.2c0,0.1-0.1,0.1-0.1,0.2
			l-4.8,22.5c-0.4,1.7-0.4,2.8-0.4,3.4l0,0.2c0,1.1,0.4,1.4,0.6,1.6c0.3,0.2,1.1,0.7,3.5,0.7l4.9,0c2.4,0,3.3-0.4,3.6-0.6
			c0.3-0.2,0.9-0.5,1.2-1.4c0.5-1.1,0.9-2.7,1.4-4.7c0,0,2.7-12.7,2.7-12.7c0,0,2.4-10.6,2.4-10.6c0,0,0.2-1,0.2-1c0,0,0-0.1,0-0.1
			c0-0.1-0.1-0.3-0.2-0.4c-0.1-0.1-0.3-0.2-0.5-0.1c-0.7,0.2-1.3,0.3-2,0.3c-1.2,0-2.2-0.3-3.1-0.8c-0.6-0.3-1.3-0.9-2.3-1.7
			c0,0-1.1-0.9-1.1-0.9C430,160.6,429.7,160.5,429.6,160.7z"/>
		<path class="st3" d="M467.8,167.5 M457.1,163.4c1.3-0.9,2.8-1.6,4.2-2.1c1.3-0.5,2.4-0.7,3.4-0.7c1.5,0,2.3,0,2.4,2.8l0,0.1
			c0,0,0,1,0,1c0,1-0.1,1.9-0.3,2.8l-4.7,21.9c-0.8,3.7-1.7,4.6-1.7,4.6c0,0-0.8,0.7-4.2,0.7h-4.8c-1.6,0-2.5-0.1-2.9-0.2
			c0-0.2,0.1-1.2,0.7-4.1c0,0,4.9-22.9,5.2-24.7C455.3,164.7,456.1,164,457.1,163.4z M461,160.4c-1.5,0.6-3,1.3-4.4,2.2
			c-1,0.6-1.9,1.4-2.9,2.2c-0.1,0.1-0.1,0.2-0.1,0.3l-5.3,24.9c-0.7,3.1-0.7,4.1-0.7,4.3l0,0.2c0,0,0,0.1,0,0.1
			c0,0.2,0.2,0.3,0.3,0.4c0.5,0.2,1.5,0.4,3.5,0.4h4.8c3.6,0,4.7-0.7,4.9-0.9c0.3-0.2,1.2-1.4,2-5.1c0,0,4.7-21.9,4.7-21.9
			c0.2-1,0.3-2,0.3-3l0-1.2c-0.1-3.4-1.5-3.7-3.4-3.7C463.6,159.6,462.4,159.8,461,160.4z"/>
		<path class="st3" d="M494.1,160.7c2.2,0,2.4,0.5,2.4,2.1c0,0,0,0.5,0,0.5c0,1-0.2,2.3-0.5,3.9c0,0-4.6,22-4.6,22
			c-0.8,3.7-1.7,4.6-1.7,4.6c0,0-0.8,0.6-4.1,0.6h-4.9c-1.5,0-2.3-0.1-2.8-0.2c0-0.3,0.1-1.4,0.7-4.1l1.6-7.8c0,0,0,0.1,0,0.1
			c0-0.2,0.3-1.3,2-9.9c0,0,1.3-6,1.5-6.9C487.8,162.4,491.4,160.7,494.1,160.7z M482.9,165c-0.1,0.1-0.1,0.2-0.2,0.3l-1.5,7
			c0,0-2,9.8-2,9.8c0,0-1.6,7.8-1.6,7.8c-0.7,3-0.7,4.1-0.7,4.4l0,0.2c0,0.2,0.2,0.5,0.4,0.5c0.4,0.1,1.4,0.3,3.4,0.3h4.9
			c3.7,0,4.6-0.8,4.8-0.9c0.3-0.2,1.2-1.3,2-5.1c0,0,4.6-22,4.6-22c0.3-1.6,0.5-3,0.5-4.1l0-0.6c-0.1-2-0.6-3.1-3.4-3.1
			C491.1,159.7,487.3,161.5,482.9,165z"/>
		<path class="st3" d="M18.4,128.8h19.3l32.2,53.5l8.7-41.1c0.6-3,0.9-5,0.8-6c-0.1-1.7-0.7-2.9-1.9-3.5c-1.2-0.6-3.4-0.9-6.6-0.9
			l0.3-1.9H96l-0.3,1.9c-3,0-5.3,0.3-6.8,0.8c-1.5,0.5-2.7,1.5-3.5,3c-0.8,1.4-1.5,3.7-2.2,6.7l-12.7,60.2h-1.8l-35-57.5l-9.2,43.9
			c-0.6,2.9-0.9,4.9-0.9,6c0.1,1.7,0.7,2.9,2,3.5c1.3,0.6,3.5,0.9,6.7,0.9l-0.3,1.9H7.1l0.4-1.9c3,0,5.3-0.3,6.8-0.8
			c1.5-0.5,2.6-1.5,3.4-2.9c0.8-1.4,1.5-3.6,2.2-6.7l10.4-49.6c-1.3-1.9-2.4-3.4-3.3-4.4c-0.9-1-2.1-1.7-3.5-2.3
			c-1.4-0.5-3.2-0.8-5.4-0.8L18.4,128.8z"/>
		<path class="st3" d="M111.2,189.9l3.9-18.5c-2.7,1-5,1.9-6.8,2.5c-1.8,0.7-3.8,1.6-6,2.9c-2.2,1.2-4.1,2.6-5.5,4.2
			c-1.5,1.6-2.4,3.3-2.8,5.4c-0.2,0.7-0.3,1.6-0.3,2.5c0.1,1.7,0.6,3.2,1.7,4.5c1,1.3,2.5,1.9,4.3,1.9
			C102.2,195.2,106.1,193.4,111.2,189.9z M110.4,193.3c-4.1,2.7-7.2,4.7-9.5,6c-2.3,1.3-4.8,1.9-7.5,1.9c-2.8,0-5-0.8-6.5-2.4
			c-1.6-1.6-2.4-3.7-2.4-6.3c-0.1-1.3,0-2.5,0.2-3.7c0.6-2.8,2.1-5.3,4.3-7.6c2.2-2.2,4.9-4.1,8.1-5.7c3.1-1.6,5.9-2.8,8.3-3.6
			c2.4-0.8,5.9-2,10.6-3.6l0.3-1.9c0.6-2.6,0.8-4.7,0.7-6.3c-0.1-4.2-2.5-6.4-7-6.4c-1.9,0-3.7,0.5-5.4,1.6
			c-1.7,1.1-2.8,2.5-3.1,4.3c-0.1,0.3-0.2,0.7-0.3,1.3c-0.1,0.6-0.1,1.2-0.2,1.7c-0.3,1.4-1,2.6-1.9,3.6c-1,1-2.1,1.5-3.6,1.5
			c-2.2,0-3.4-1.1-3.5-3.3c0-0.4,0.1-0.9,0.2-1.7c0.5-2.1,1.5-3.9,2.9-5.5c1.4-1.6,3.1-2.8,5.1-3.8c2-0.9,4-1.6,6.2-2.1
			c2.2-0.5,4.2-0.7,6-0.7c8,0,12.5,2.4,13.5,7.2c0.1,2.6-0.3,5.7-0.9,9.3c-0.7,3-1.4,5.6-1.9,7.8c-0.5,2.2-1,4.3-1.4,6.4
			c0,0.1-0.1,0.6-0.3,1.3c-0.2,0.7-0.3,1.4-0.4,2.2c-0.7,3.3-1,5.7-1,7.1c0.1,1.8,0.6,2.7,1.6,2.7c0.8,0,1.7-0.4,2.7-1.1
			c1-0.7,2.3-1.8,3.9-3.2l-0.6,3c-5.2,5.3-9.5,7.9-13,7.9c-2.8,0-4.2-1.4-4.3-4.3C109.9,195.8,110.1,194.6,110.4,193.3z"/>
		<path class="st3" d="M148.2,136.2l-3.3,15.8h11.3l-0.7,3.6h-11.3l-6.7,31.3c-0.4,1.9-0.6,3.3-0.5,4.2c0.1,2.5,1.3,3.8,3.6,3.8
			c1.3,0,2.6-0.4,3.8-1.2c1.2-0.8,2.2-1.8,3-3.1h2c-1.1,1.9-2.4,3.7-3.9,5.2c-1.5,1.5-3.1,2.8-4.9,3.7c-1.8,0.9-3.7,1.4-5.5,1.4
			c-4.6,0-6.9-2.3-7.1-7c-0.1-1.8,0.1-3.7,0.6-5.8l6.9-32.5h-7.6l0.3-1.7c3.7-1.4,7-3.7,10-6.8c3-3.1,5.8-6.7,8.4-11H148.2z"/>
		<path class="st3" d="M175.2,189.9l3.9-18.5c-2.7,1-5,1.9-6.8,2.5c-1.8,0.7-3.8,1.6-6,2.9c-2.2,1.2-4.1,2.6-5.5,4.2
			c-1.5,1.6-2.4,3.3-2.8,5.4c-0.2,0.7-0.3,1.6-0.3,2.5c0.1,1.7,0.6,3.2,1.7,4.5c1,1.3,2.5,1.9,4.3,1.9
			C166.3,195.2,170.2,193.4,175.2,189.9z M174.4,193.3c-4.1,2.7-7.2,4.7-9.5,6c-2.3,1.3-4.8,1.9-7.5,1.9c-2.8,0-5-0.8-6.5-2.4
			c-1.6-1.6-2.4-3.7-2.4-6.3c-0.1-1.3,0-2.5,0.2-3.7c0.6-2.8,2.1-5.3,4.3-7.6c2.2-2.2,4.9-4.1,8.1-5.7c3.1-1.6,5.9-2.8,8.3-3.6
			c2.4-0.8,5.9-2,10.6-3.6l0.3-1.9c0.6-2.6,0.8-4.7,0.7-6.3c-0.1-4.2-2.5-6.4-7-6.4c-1.9,0-3.7,0.5-5.4,1.6
			c-1.7,1.1-2.8,2.5-3.1,4.3c-0.1,0.3-0.2,0.7-0.3,1.3c-0.1,0.6-0.1,1.2-0.2,1.7c-0.3,1.4-1,2.6-1.9,3.6c-1,1-2.1,1.5-3.6,1.5
			c-2.2,0-3.4-1.1-3.5-3.3c0-0.4,0.1-0.9,0.2-1.7c0.5-2.1,1.5-3.9,2.9-5.5c1.4-1.6,3.1-2.8,5.1-3.8c2-0.9,4-1.6,6.2-2.1
			c2.2-0.5,4.2-0.7,6-0.7c8,0,12.5,2.4,13.5,7.2c0.1,2.6-0.3,5.7-0.9,9.3c-0.7,3-1.4,5.6-1.9,7.8c-0.5,2.2-1,4.3-1.4,6.4
			c0,0.1-0.1,0.6-0.3,1.3c-0.2,0.7-0.3,1.4-0.4,2.2c-0.7,3.3-1,5.7-1,7.1c0.1,1.8,0.6,2.7,1.6,2.7c0.8,0,1.7-0.4,2.7-1.1
			c1-0.7,2.3-1.8,3.9-3.2l-0.6,3c-5.2,5.3-9.5,7.9-13,7.9c-2.8,0-4.2-1.4-4.3-4.3C174,195.8,174.1,194.6,174.4,193.3z"/>
		<path class="st3" d="M215.6,125.3l-13.5,64c-0.5,2.3-0.8,4-0.8,5.2c0.1,1.4,0.6,2.3,1.5,2.9c0.9,0.6,2.6,0.9,5.1,0.9l-0.3,1.9H184
			l0.4-1.9c2.1,0,3.7-0.3,4.8-0.9c1.1-0.6,1.9-1.5,2.5-2.7c0.6-1.2,1.1-2.9,1.5-5c1.2-5.5,2.5-11.4,3.8-17.7
			c1.3-6.4,2.5-11.9,3.6-16.6c1-4.7,2.1-9.7,3.3-15.2c0.4-1.8,0.6-3.3,0.6-4.5c0-2.3-0.9-3.5-2.6-3.5c-1,0-2.2,0.3-3.6,0.8l-0.4-1.8
			l15.4-5.8H215.6z"/>
		<path class="st3" d="M234.4,125.3c1.2,0,2.3,0.4,3.1,1.1c0.8,0.8,1.3,1.7,1.3,2.9c0,0.3-0.1,0.7-0.2,1.3c-0.2,1.4-1,2.7-2.3,3.8
			c-1.3,1.1-2.7,1.6-4.1,1.6c-1.2,0-2.2-0.4-3-1.2c-0.9-0.8-1.3-1.8-1.3-2.9c0-0.3,0-0.7,0.1-1.3c0.3-1.5,1.1-2.8,2.4-3.8
			C231.5,125.8,232.9,125.3,234.4,125.3z M233.6,150.6l-8.2,38.7c-0.6,2.6-0.9,4.3-0.9,5.2c0.1,1.3,0.6,2.2,1.5,2.9
			c0.9,0.6,2.5,0.9,4.6,0.9l-0.3,1.9h-23.4l0.4-1.9c2.2,0,3.9-0.3,5-0.9c1.1-0.6,1.9-1.4,2.5-2.5c0.5-1.1,1.1-2.8,1.5-5.1
			c0.7-2.7,1.5-6.2,2.5-10.7c1-4.5,1.9-8.8,2.7-13.2c0.5-1.9,0.7-3.5,0.6-4.9c-0.1-2.4-0.9-3.6-2.5-3.6c-0.8,0-2,0.3-3.7,0.9
			l-0.4-1.9l15.8-5.8H233.6z"/>
		<path class="st3" d="M282.3,163.7c3.6,0.7,6.4,1.1,8.5,1.1c2.7,0,5.2-0.7,7.5-2.1c2.3-1.4,4.3-3.3,6-5.6c1.7-2.3,2.7-4.8,3.3-7.5
			c0.4-1.7,0.5-3.4,0.4-5.1c-0.1-3.5-1.2-6.3-3.3-8.4c-2.1-2.1-5-3.1-8.9-3.1c-1.7,0-4.1,0.4-7.1,1.1L282.3,163.7z M281.7,166.8
			l-4.4,20.8c-0.6,2.9-0.9,4.9-0.8,6.1c0.1,1.2,0.4,2.2,1,2.8c0.6,0.6,1.5,1.1,2.7,1.3c1.3,0.3,3,0.4,5.1,0.4l-0.3,1.9h-30.5
			l0.4-1.9c3.1,0,5.4-0.3,6.8-0.9c1.5-0.6,2.6-1.6,3.3-3c0.7-1.4,1.5-3.7,2.1-6.8l9.8-46.1c0.6-2.9,0.9-4.9,0.8-6.1
			c-0.1-1.7-0.7-2.9-2-3.6c-1.3-0.6-3.4-1-6.5-1l0.3-1.9h26c4.2,0,8.2,0.4,11.8,1.3c3.6,0.9,6.6,2.4,9,4.6c2.4,2.2,3.6,5.1,3.7,8.8
			c0.1,1.5,0,3.2-0.4,5.1c-1.4,6.4-4.5,11.3-9.3,14.7c-4.8,3.4-10.5,5.1-17,5.1C289.8,168.3,285.9,167.8,281.7,166.8z"/>
		<path class="st3" d="M338.7,125.3l-7.5,35.3c3.5-3.2,6.7-5.6,9.5-7.4c2.9-1.8,5.8-2.6,8.8-2.6c6,0,9.1,3.2,9.3,9.6
			c0.1,2.6-0.4,6.6-1.4,12.1l-3.6,17c-0.6,2.4-0.9,4.1-0.9,5.2c0.1,1.3,0.6,2.2,1.5,2.9c0.9,0.6,2.5,0.9,4.6,0.9l-0.3,1.9h-23.7
			l0.3-1.9c2.2,0,3.8-0.2,5-0.6c1.1-0.4,2-1.1,2.7-2.2c0.6-1,1.2-2.7,1.8-4.9l3.9-19c0.2-0.6,0.4-1.4,0.6-2.6
			c0.2-1.2,0.4-2.2,0.5-3.2c0.1-1,0.1-1.9,0.1-2.7c-0.2-4.1-2.1-6.1-5.9-6.1c-2.3,0-4.5,0.6-6.6,1.8c-2.1,1.2-4.4,2.9-6.9,5.1
			l-5.3,25.4c-0.6,2.9-0.8,4.7-0.8,5.4c0.1,1.3,0.6,2.2,1.5,2.7c0.9,0.5,2.6,0.8,5.1,0.8l-0.3,1.9h-23.9l0.4-1.9
			c1.7,0,3-0.2,4.1-0.5c1.1-0.4,2-0.9,2.6-1.6c0.6-0.7,1.1-1.6,1.5-2.8c0.4-1.1,0.8-2.5,1.2-4c1.6-8.1,3.3-16.4,5.2-25.1
			c1.9-8.7,3.6-16.4,5.1-23.1c0.4-1.9,0.6-3.6,0.6-5.2c-0.1-2.4-1-3.7-2.6-3.7c-0.6,0-1.8,0.3-3.8,0.8l-0.3-1.8l15.5-5.8H338.7z"/>
		<path class="st3" d="M388.6,189.9l3.9-18.5c-2.7,1-5,1.9-6.8,2.5c-1.8,0.7-3.8,1.6-6,2.9c-2.2,1.2-4.1,2.6-5.5,4.2
			c-1.5,1.6-2.4,3.3-2.8,5.4c-0.2,0.7-0.3,1.6-0.3,2.5c0.1,1.7,0.6,3.2,1.7,4.5c1,1.3,2.5,1.9,4.3,1.9
			C379.6,195.2,383.5,193.4,388.6,189.9z M387.8,193.3c-4.1,2.7-7.2,4.7-9.5,6c-2.3,1.3-4.8,1.9-7.5,1.9c-2.8,0-5-0.8-6.5-2.4
			c-1.6-1.6-2.4-3.7-2.4-6.3c-0.1-1.3,0-2.5,0.2-3.7c0.6-2.8,2.1-5.3,4.3-7.6c2.2-2.2,4.9-4.1,8.1-5.7c3.1-1.6,5.9-2.8,8.3-3.6
			c2.4-0.8,5.9-2,10.6-3.6l0.3-1.9c0.6-2.6,0.8-4.7,0.7-6.3c-0.1-4.2-2.5-6.4-7-6.4c-1.9,0-3.7,0.5-5.4,1.6
			c-1.7,1.1-2.8,2.5-3.1,4.3c-0.1,0.3-0.2,0.7-0.3,1.3c-0.1,0.6-0.1,1.2-0.2,1.7c-0.3,1.4-1,2.6-1.9,3.6c-1,1-2.1,1.5-3.6,1.5
			c-2.2,0-3.4-1.1-3.5-3.3c0-0.4,0.1-0.9,0.2-1.7c0.5-2.1,1.5-3.9,2.9-5.5c1.4-1.6,3.1-2.8,5.1-3.8c2-0.9,4-1.6,6.2-2.1
			c2.2-0.5,4.2-0.7,6-0.7c8,0,12.5,2.4,13.5,7.2c0.1,2.6-0.3,5.7-0.9,9.3c-0.7,3-1.4,5.6-1.9,7.8c-0.5,2.2-1,4.3-1.4,6.4
			c0,0.1-0.1,0.6-0.3,1.3c-0.2,0.7-0.3,1.4-0.4,2.2c-0.7,3.3-1,5.7-1,7.1c0.1,1.8,0.6,2.7,1.6,2.7c0.8,0,1.7-0.4,2.7-1.1
			c1-0.7,2.3-1.8,3.9-3.2l-0.6,3c-5.2,5.3-9.5,7.9-13,7.9c-2.8,0-4.2-1.4-4.3-4.3C387.3,195.8,387.5,194.6,387.8,193.3z"/>
		<path class="st3" d="M424.5,150.6l-2.3,10.8c2.3-2.9,4.7-5.5,7.2-7.6c2.5-2.1,5-3.2,7.4-3.2c1.1,0,2,0.2,2.8,0.5
			c0.8,0.4,1.4,0.9,2,1.5c0.5,0.6,0.8,1.4,0.8,2.4c0,0.1,0,0.6-0.1,1.4c-0.3,1.3-1,2.4-2.1,3.4c-1.1,1-2.3,1.5-3.6,1.5
			c-0.6,0-1.2-0.1-1.6-0.4c-0.4-0.3-1.1-0.7-1.9-1.5c-0.8-0.7-1.5-1.2-1.9-1.5c-0.4-0.3-0.8-0.4-1.3-0.4c-1.9,0-4.7,2.7-8.6,8.2
			l-4.9,23.2c-0.4,1.7-0.5,3.2-0.5,4.3c0.1,1.7,0.7,2.9,1.7,3.7c1.1,0.8,2.8,1.2,5.2,1.2l-0.3,1.9h-24.7l0.4-1.9
			c2.2,0,3.8-0.3,5-0.8c1.2-0.5,2.1-1.4,2.7-2.5c0.6-1.2,1.2-2.8,1.7-5c0.6-2.7,1.1-5.1,1.6-7.2c0.4-2.1,0.8-3.9,1.2-5.6
			c0.4-1.7,0.8-3.7,1.4-6.1c0.5-2.4,0.9-4.2,1.2-5.6c0.4-2,0.6-3.5,0.6-4.5c-0.1-2.3-1.1-3.5-3-3.5c-0.8,0-2,0.3-3.7,0.9l-0.2-1.9
			l15.8-5.8H424.5z"/>
		<path class="st3" d="M451.5,160.8c4-3.5,7.3-6.1,10-7.8c2.7-1.7,5.7-2.5,8.9-2.5c3.2,0,5.6,0.9,7.3,2.6c1.7,1.8,2.6,4.3,2.8,7.6
			c3.6-3.4,6.9-5.9,9.7-7.7c2.9-1.7,6-2.6,9.3-2.6c6.3,0,9.5,3.3,9.8,9.8c0,2.1-0.3,4.8-0.9,8.2l-4.4,20.7c-0.6,2.4-0.9,4.2-0.9,5.2
			c0.1,1.3,0.6,2.2,1.5,2.9c0.9,0.6,2.5,0.9,4.6,0.9l-0.3,1.9h-23.7l0.3-1.9c3.3,0,5.6-0.6,6.7-1.7c1.2-1.1,2.1-3.3,2.9-6.6l4.6-22
			c0.4-2.2,0.6-3.9,0.5-5.3c-0.1-3.9-2.2-5.8-6.2-5.8c-3.9,0-8.5,2.2-13.8,6.6c0,0.1-0.1,0.2-0.1,0.3c-0.1,0.1-0.1,0.3-0.1,0.3
			c-0.5,1.9-1,4.4-1.7,7.7c-0.7,3.3-1.3,6.5-2,9.8c-0.7,3.3-1.2,5.8-1.6,7.7c-0.6,2.7-0.9,4.5-0.8,5.4c0.1,1.3,0.6,2.2,1.5,2.8
			c0.9,0.5,2.6,0.8,5.1,0.8l-0.3,1.9h-24.5l0.3-1.9c3.3,0,5.6-0.6,6.8-1.7c1.2-1.1,2.2-3.3,2.9-6.6l4.7-21.9
			c0.3-1.6,0.5-3.2,0.3-4.9c-0.1-4.3-2.2-6.5-6.2-6.5c-1.4,0-3,0.3-4.7,1c-1.7,0.6-3.4,1.5-4.9,2.5c-1.6,1-2.9,2.1-4.1,3.2
			l-5.5,25.9c-0.6,2.7-0.9,4.5-0.8,5.3c0.1,1.4,0.6,2.3,1.6,2.9c1,0.5,2.7,0.8,5.1,0.8l-0.3,1.9h-23.8l0.4-1.9c2.2,0,3.9-0.3,5-0.9
			c1.1-0.6,1.9-1.5,2.5-2.8c0.5-1.3,1.1-3,1.6-5.2c0.8-3.9,1.7-8.1,2.7-12.6c1-4.5,1.8-8.1,2.4-10.7c0.4-2,0.6-3.7,0.5-5.1
			c-0.1-2.3-1-3.5-2.6-3.5c-0.8,0-2,0.3-3.5,0.9l-0.5-1.9l15.8-5.8h2.3L451.5,160.8z"/>
	</g>
</g>
<g id="cdr_x5F_layer3">
</g>
<g id="cdr_x5F_layer4">
</g>
<g id="MasterLayer_1">
</g>
</svg>
